<svg width="362" height="92" viewBox="0 0 362 92" fill="none" xmlns="http://www.w3.org/2000/svg">
<path d="M92.4816 22.3075V22.2908C92.4838 18.9641 89.7888 16.2656 86.4621 16.2634C86.4615 16.2634 86.4609 16.2634 86.4603 16.2634H41.3653C38.0379 16.2596 35.3374 18.9538 35.3335 22.2812C35.3296 25.6086 38.0239 28.3092 41.3513 28.313C41.3543 28.313 41.3573 28.313 41.3603 28.313L80.4195 28.3248L80.4203 67.3807C80.4228 70.7123 83.1255 73.4111 86.4571 73.4086C89.782 73.4061 92.478 70.7139 92.485 67.389L92.4817 22.3075L92.4816 22.3075Z" fill="#C25700"/>
<path d="M74.8551 39.8944C74.8555 36.5688 72.1599 33.8725 68.8342 33.8721C68.8335 33.8721 68.8327 33.8721 68.832 33.8721H41.365C38.0431 33.8672 35.3463 36.5561 35.3413 39.8779C35.3364 43.1997 38.0252 45.8966 41.3471 45.9016C41.3514 45.9016 41.3557 45.9016 41.36 45.9016H62.8055L62.8072 67.3807C62.7999 70.7077 65.491 73.4106 68.8179 73.4179C72.1449 73.4252 74.8478 70.7341 74.8551 67.4071C74.8551 67.4011 74.8551 67.3951 74.8551 67.3891L74.8551 39.8944Z" fill="#4C79AF"/>
<path d="M57.2409 57.3302C57.2386 54.0925 54.6182 51.4665 51.3806 51.4573H41.2067C37.9667 51.4566 35.3396 54.0826 35.3389 57.3226C35.3382 60.5627 37.9642 63.1898 41.2042 63.1905L45.5279 63.1964L45.5296 67.5419C45.5222 70.7754 48.1374 73.4027 51.3709 73.4102C54.6044 73.4176 57.2318 70.8024 57.2392 67.5689C57.2392 67.5621 57.2392 67.5554 57.2392 67.5486L57.2409 57.3302Z" fill="#386097"/>
<path d="M128.267 27.1474V29.6845H120.719V49.7944H117.705V29.6845H110.156V27.1474H128.267Z" fill="#386097"/>
<path d="M132.581 33.0151C136.662 33.0151 138.702 34.4848 138.703 37.4241V46.8764C138.703 47.4896 138.988 47.796 139.559 47.7958C139.841 47.7947 140.121 47.741 140.384 47.6374V49.731C139.788 50.043 139.121 50.196 138.449 50.1753C136.926 50.1753 136.165 49.3293 136.165 47.6374C134.734 49.327 132.605 50.2632 130.392 50.1753C128.967 50.2583 127.558 49.8371 126.412 48.9855C125.424 48.137 124.89 46.8757 124.968 45.5762C124.909 44.2599 125.431 42.984 126.396 42.0865C127.347 41.2199 129.557 40.5645 133.025 40.1203C133.865 40.0792 134.684 39.8458 135.42 39.4382C135.838 39.1202 136.07 38.6145 136.038 38.0901C136.038 36.2935 134.822 35.395 132.391 35.3945C131.338 35.3198 130.289 35.5806 129.393 36.1393C128.687 36.7185 128.284 37.589 128.299 38.5026H125.603C125.814 34.8447 128.14 33.0156 132.581 33.0151ZM127.823 45.3854C127.79 46.0769 128.098 46.7406 128.648 47.1615C129.339 47.626 130.164 47.849 130.995 47.7958C132.282 47.8489 133.549 47.4694 134.595 46.718C135.458 46.1441 135.985 45.1844 136.007 44.1485V41.3255C135.434 41.6951 134.782 41.9233 134.103 41.9915L131.344 42.404C130.385 42.4794 129.464 42.8137 128.68 43.3713C128.097 43.8733 127.78 44.6175 127.823 45.3854L127.823 45.3854Z" fill="#386097"/>
<path d="M145.585 27.1474V49.7944H142.889V27.1474L145.585 27.1474Z" fill="#386097"/>
<path d="M156.432 33.0151C158.549 32.9185 160.582 33.8523 161.888 35.5212C163.271 37.4222 163.965 39.7381 163.854 42.0865V42.404H151.579V42.5941C151.509 43.9891 152 45.3542 152.943 46.3843C153.937 47.3593 155.296 47.8715 156.686 47.7958C159.033 47.7958 160.45 46.7281 160.936 44.5927H163.601C163.357 46.2316 162.508 47.7199 161.222 48.7638C159.881 49.7412 158.249 50.2384 156.591 50.1752C154.011 50.1752 152.055 49.3293 150.723 47.6374C149.368 45.8777 148.662 43.7041 148.725 41.4839C148.65 39.2586 149.433 37.0896 150.913 35.4262C152.307 33.8474 154.327 32.9649 156.432 33.0151ZM161 40.0253C160.952 38.7782 160.437 37.5946 159.556 36.7102C158.68 35.8335 157.481 35.3574 156.242 35.3945C155.059 35.3687 153.916 35.8201 153.07 36.6469C152.172 37.5498 151.641 38.7535 151.579 40.0253H161Z" fill="#386097"/>
<path d="M174.416 33.0151C178.18 33.0151 180.062 34.9712 180.062 38.8834V49.7944H177.366V38.5976C177.39 37.7536 177.083 36.9337 176.51 36.3139C175.844 35.6637 174.932 35.3291 174.004 35.3945C172.667 35.3114 171.361 35.8219 170.435 36.7898C169.57 37.8027 169.123 39.1064 169.183 40.4371V49.7944H166.486V33.3959H169.024V35.9971H169.087C170.155 34.0742 172.218 32.9197 174.416 33.0151Z" fill="#386097"/>
<path d="M187.072 28.4793V33.3959H190.339V35.7747H187.072V46.0513C187.037 46.4234 187.139 46.7952 187.358 47.0981C187.548 47.31 188.023 47.4159 188.785 47.4156H190.339V49.7944H188.119C186.723 49.7944 185.751 49.5618 185.201 49.0967C184.65 48.6314 184.375 47.7221 184.376 46.3688V35.7747H181.585V33.3959H184.376V28.4793H187.072Z" fill="#386097"/>
<path d="M209.814 26.6082C212.372 26.6082 214.402 27.2425 215.904 28.511C217.426 29.8255 218.257 31.7683 218.156 33.7768H215.301C214.963 30.6898 213.092 29.1463 209.687 29.146C208.359 29.0613 207.039 29.412 205.928 30.145C205.043 30.8262 204.551 31.9 204.612 33.0151C204.619 33.8138 204.979 34.5685 205.595 35.077C206.25 35.6691 208.344 36.3245 211.875 37.0432C213.85 37.3321 215.72 38.112 217.316 39.3115C218.532 40.3862 219.191 41.9568 219.107 43.5776C219.171 45.5697 218.184 47.4489 216.507 48.5259C214.654 49.7451 212.476 50.3754 210.258 50.3337C207.404 50.3337 205.13 49.6201 203.439 48.1929C201.734 46.739 200.797 44.5787 200.901 42.3407H203.755C203.689 43.9083 204.379 45.4125 205.611 46.3843C206.988 47.3757 208.659 47.8731 210.353 47.7958C211.845 47.8885 213.33 47.5175 214.603 46.7335C215.592 46.0365 216.155 44.8811 216.094 43.6726C216.112 42.606 215.563 41.61 214.651 41.0559C213.121 40.2125 211.449 39.6588 209.719 39.4227C206.399 38.7673 204.216 37.9636 203.169 37.0116C202.116 36.0461 201.541 34.6654 201.598 33.2375C201.535 31.3628 202.372 29.5709 203.85 28.416C205.569 27.1413 207.677 26.5024 209.814 26.6082Z" fill="#386097"/>
<path d="M228.591 33.0151C230.781 32.9076 232.909 33.7657 234.411 35.3628C237.266 39.0038 237.266 44.1232 234.411 47.7641C232.928 49.396 230.794 50.2802 228.591 50.1752C226.415 50.2712 224.304 49.4209 222.802 47.8437C221.295 46.128 220.515 43.8923 220.63 41.6114C220.511 39.3256 221.278 37.0821 222.77 35.3466C224.278 33.7582 226.404 32.9067 228.591 33.0151ZM223.484 41.6114C223.41 43.2247 223.916 44.8112 224.912 46.083C226.62 48.1144 229.651 48.3764 231.683 46.6683C231.889 46.4949 232.08 46.3046 232.254 46.0992C233.264 44.8279 233.777 43.2329 233.697 41.6114C233.77 39.9932 233.264 38.4021 232.271 37.1228C231.373 35.9959 229.999 35.3559 228.559 35.3945C227.142 35.3743 225.797 36.0201 224.927 37.139C223.929 38.4102 223.417 39.9962 223.484 41.6114L223.484 41.6114Z" fill="#386097"/>
<path d="M241.786 27.1474V49.7944H239.089V27.1474L241.786 27.1474Z" fill="#386097"/>
<path d="M248.508 33.3959V44.561C248.476 45.4265 248.796 46.268 249.397 46.8919C250.05 47.5188 250.935 47.8461 251.839 47.7958C253.192 47.8892 254.516 47.3782 255.455 46.4005C256.311 45.3831 256.752 44.0811 256.692 42.7532V33.3959H259.389V49.7944H256.851V47.1932H256.787C255.742 49.1391 253.664 50.3024 251.459 50.1753C247.695 50.1753 245.813 48.2297 245.813 44.3386V33.3959H248.508Z" fill="#386097"/>
<path d="M266.398 28.4793V33.3959H269.665V35.7747H266.398V46.0513C266.364 46.4234 266.465 46.7952 266.684 47.0981C266.874 47.31 267.349 47.4159 268.111 47.4156H269.665V49.7944H267.445C266.049 49.7944 265.077 49.5618 264.527 49.0967C263.976 48.6314 263.701 47.7221 263.702 46.3688V35.7747H260.911V33.3959H263.702V28.4793H266.398Z" fill="#386097"/>
<path d="M274.709 27.1474V30.4463H272.013V27.1474H274.709ZM274.709 33.3959V49.7944H272.013V33.3959L274.709 33.3959Z" fill="#386097"/>
<path d="M285.175 33.0151C287.365 32.9076 289.493 33.7657 290.995 35.3628C293.85 39.0038 293.85 44.1232 290.995 47.7641C289.512 49.396 287.378 50.2802 285.175 50.1752C282.999 50.2712 280.888 49.4209 279.386 47.8437C277.879 46.128 277.099 43.8923 277.214 41.6114C277.095 39.3256 277.862 37.0821 279.354 35.3466C280.862 33.7582 282.988 32.9067 285.175 33.0151ZM280.068 41.6114C279.994 43.2247 280.5 44.8112 281.496 46.083C283.204 48.1144 286.235 48.3764 288.267 46.6683C288.473 46.4949 288.664 46.3046 288.838 46.0992C289.848 44.8279 290.361 43.2329 290.282 41.6114C290.354 39.9932 289.848 38.4021 288.855 37.1228C287.957 35.9959 286.583 35.3559 285.143 35.3945C283.726 35.3743 282.381 36.0201 281.511 37.139C280.513 38.4102 280.001 39.9962 280.068 41.6114L280.068 41.6114Z" fill="#386097"/>
<path d="M304.079 33.0151C307.842 33.0151 309.724 34.9712 309.724 38.8834V49.7944H307.028V38.5976C307.114 36.908 305.813 35.4689 304.124 35.3834C303.971 35.3757 303.818 35.3794 303.666 35.3945C302.329 35.3114 301.024 35.8219 300.098 36.7898C299.232 37.8027 298.785 39.1064 298.844 40.4371V49.7944H296.149V33.3959H298.686V35.9971H298.749C299.818 34.0741 301.881 32.9197 304.079 33.0151Z" fill="#386097"/>
<path d="M318.447 33.0151C320.667 33.0151 322.311 33.4433 323.379 34.2998C324.5 35.2661 325.143 36.6736 325.14 38.1534H322.443V38.1217C322.397 37.3012 321.969 36.5499 321.286 36.0922C320.494 35.598 319.57 35.3548 318.638 35.3945C317.754 35.3505 316.874 35.5363 316.084 35.9338C315.23 36.3801 314.9 37.4341 315.346 38.2879C315.491 38.5647 315.708 38.7976 315.973 38.9623C316.747 39.4193 317.595 39.7363 318.478 39.8986L321.016 40.4695C322.332 40.7058 323.573 41.2551 324.632 42.0711C325.47 42.8094 325.926 43.8897 325.869 45.0052C325.93 46.5089 325.226 47.9414 323.998 48.8109C322.483 49.7964 320.695 50.2742 318.891 50.1753C317.125 50.27 315.376 49.7855 313.911 48.7955C312.641 47.7882 311.913 46.2454 311.945 44.6244H314.64C314.639 45.5557 315.089 46.43 315.846 46.9715C316.801 47.5749 317.922 47.8633 319.049 47.7958C321.693 47.7958 323.014 46.9818 323.014 45.3537C323.023 44.6504 322.654 43.9965 322.047 43.6409C320.742 42.9975 319.346 42.5589 317.908 42.3407C316.358 42.1271 314.88 41.5512 313.594 40.6596C312.719 39.9235 312.238 38.8207 312.293 37.6782C312.261 36.3472 312.884 35.0851 313.959 34.2999C315.269 33.3826 316.849 32.9303 318.447 33.0151Z" fill="#386097"/>
<path fill-rule="evenodd" clip-rule="evenodd" d="M212.183 63.2745H212.481C212.738 63.2745 212.969 63.2619 212.969 62.9718C212.969 62.7239 212.759 62.6828 212.566 62.6828H212.183V63.2745H212.183ZM211.898 62.4518H212.612C213.05 62.4518 213.258 62.6269 213.258 62.9834C213.273 63.2464 213.073 63.4724 212.81 63.488C212.796 63.4888 212.783 63.489 212.769 63.4887L213.299 64.3086H212.989L212.489 63.5087H212.183V64.3086H211.898V62.4518H211.898ZM212.51 64.7379C213.26 64.7685 213.892 64.186 213.922 63.4367C213.953 62.6874 213.371 62.0552 212.621 62.0246C211.872 61.9939 211.24 62.5765 211.209 63.3257C211.208 63.3414 211.208 63.357 211.208 63.3727C211.176 64.0936 211.734 64.7042 212.455 64.7366C212.473 64.7374 212.492 64.7378 212.51 64.7379ZM212.51 61.7915C213.388 61.7929 214.098 62.5056 214.097 63.3833C214.095 64.261 213.383 64.9714 212.505 64.9699C211.627 64.9685 210.917 64.2558 210.918 63.3781C210.918 63.3763 210.918 63.3745 210.918 63.3727C210.915 62.5024 211.619 61.7944 212.489 61.7914C212.496 61.7914 212.503 61.7914 212.51 61.7915Z" fill="#386097"/>
<path d="M112.96 62.7328L116.001 70.8426L119.056 62.7328H120.813V72.3836H119.596V64.3548H119.569L116.555 72.3836H115.46L112.446 64.3548H112.419V72.3836H111.203V62.7328H112.96Z" fill="#386097"/>
<path d="M125.421 65.2333C127.161 65.2333 128.03 65.8596 128.03 67.1123V71.1405C128.03 71.4016 128.152 71.5321 128.395 71.5319C128.515 71.5316 128.635 71.5087 128.747 71.4643V72.357C128.493 72.4897 128.209 72.5547 127.922 72.5456C127.273 72.5456 126.949 72.1852 126.949 71.4643C126.339 72.1844 125.432 72.5832 124.489 72.5456C123.882 72.5812 123.281 72.4017 122.793 72.0388C122.372 71.6772 122.144 71.1397 122.178 70.5858C122.152 70.0249 122.375 69.4813 122.786 69.0989C123.191 68.7301 124.133 68.4508 125.611 68.2612C125.969 68.2439 126.318 68.1444 126.631 67.9705C126.81 67.835 126.908 67.6195 126.895 67.396C126.895 66.6301 126.377 66.2471 125.341 66.2471C124.892 66.2155 124.445 66.3266 124.063 66.5646C123.762 66.8116 123.59 67.1826 123.597 67.572H122.448C122.538 66.0127 123.529 65.2331 125.421 65.2333ZM123.394 70.5047C123.38 70.7994 123.511 71.0821 123.746 71.2615C124.04 71.4596 124.392 71.5546 124.746 71.5318C125.294 71.5545 125.834 71.3929 126.28 71.0728C126.648 70.8282 126.872 70.419 126.881 69.9774V68.775C126.637 68.9321 126.359 69.0293 126.07 69.0587L124.894 69.234C124.486 69.2664 124.093 69.409 123.759 69.6466C123.511 69.8604 123.376 70.1775 123.394 70.5047Z" fill="#386097"/>
<path d="M133.153 65.2334C134.757 65.2334 135.559 66.0669 135.559 67.7339V72.3837H134.41V67.6121C134.42 67.2525 134.289 66.9032 134.045 66.6392C133.761 66.362 133.373 66.2193 132.977 66.2471C132.407 66.2118 131.851 66.4294 131.456 66.8419C131.088 67.2737 130.897 67.8293 130.923 68.3963V72.3837H129.774V65.396H130.855V66.504H130.882C131.337 65.6846 132.216 65.1927 133.153 65.2334Z" fill="#386097"/>
<path d="M140.776 65.2333C141.673 65.1924 142.539 65.5634 143.128 66.2407C143.733 66.9948 144.041 67.9445 143.993 68.9102C144.038 69.8664 143.728 70.8054 143.121 71.5459C142.54 72.2129 141.687 72.5804 140.803 72.5456C140.366 72.5449 139.934 72.4553 139.533 72.2823C139.126 72.1132 138.782 71.8229 138.546 71.4509H138.519V75.0602H137.37V65.3959H138.519V66.3421H138.546C138.998 65.5565 139.877 65.1192 140.776 65.2333ZM138.479 68.8828C138.441 69.5741 138.644 70.257 139.053 70.8159C139.451 71.3003 140.056 71.5663 140.682 71.5318C141.282 71.5624 141.86 71.2974 142.229 70.8222C142.627 70.2365 142.82 69.5354 142.777 68.8285C142.807 68.157 142.599 67.4963 142.189 66.9637C141.802 66.4879 141.213 66.2223 140.6 66.2471C140.002 66.2238 139.429 66.4846 139.053 66.9503C138.642 67.5076 138.439 68.1913 138.479 68.8828Z" fill="#386097"/>
<path d="M148.291 65.2334C149.224 65.1876 150.131 65.5533 150.771 66.2337C151.988 67.7853 151.988 69.967 150.771 71.5185C150.139 72.2138 149.23 72.5905 148.291 72.5456C147.364 72.5867 146.464 72.2244 145.824 71.5523C145.182 70.8212 144.849 69.8684 144.898 68.8962C144.848 67.9222 145.175 66.9662 145.81 66.2267C146.453 65.5501 147.359 65.1874 148.291 65.2334ZM146.115 68.8962C146.083 69.5839 146.299 70.2602 146.723 70.8026C147.452 71.6681 148.744 71.7792 149.609 71.0505C149.697 70.9769 149.778 70.8961 149.852 70.8089C150.282 70.2671 150.501 69.5873 150.467 68.8962C150.498 68.2068 150.282 67.529 149.859 66.9842C149.477 66.5037 148.891 66.2307 148.277 66.2471C147.673 66.2385 147.101 66.5137 146.73 66.9905C146.304 67.5321 146.086 68.2079 146.115 68.8962H146.115Z" fill="#386097"/>
<path d="M153.332 65.396L154.914 71.113H154.941L156.347 65.396H157.604L159.077 71.113H159.09L160.658 65.396H161.848L159.631 72.3703L159.617 72.3837H158.401L156.968 66.8286H156.955L155.549 72.3837H154.306L152.062 65.396H153.332Z" fill="#386097"/>
<path d="M165.443 65.2334C166.345 65.1923 167.211 65.5902 167.768 66.3013C168.357 67.1113 168.653 68.0982 168.606 69.0989V69.2341H163.375V69.3157C163.345 69.9102 163.554 70.4918 163.956 70.9307C164.38 71.3462 164.959 71.5644 165.551 71.5319C166.422 71.6302 167.217 71.0307 167.362 70.1669H168.498C168.394 70.8653 168.032 71.4996 167.484 71.9444C166.912 72.3609 166.217 72.5727 165.511 72.5456C164.552 72.6082 163.621 72.2059 163.01 71.4643C162.433 70.7147 162.132 69.7886 162.158 68.8427C162.126 67.8942 162.46 66.9696 163.091 66.2605C163.685 65.588 164.546 65.2121 165.443 65.2334ZM167.389 68.2203C167.369 67.689 167.15 67.1848 166.774 66.8081C166.401 66.4344 165.89 66.2314 165.362 66.2471C164.858 66.2361 164.371 66.4287 164.01 66.7814C163.628 67.1659 163.401 67.6786 163.375 68.2203L167.389 68.2203Z" fill="#386097"/>
<path d="M173.431 65.2334V66.4498C172.725 66.3903 172.028 66.6393 171.519 67.1327C171.059 67.7427 170.84 68.5004 170.904 69.2615V72.3837H169.755V65.396H170.836V66.8687H170.863C171.248 65.8772 172.206 65.2265 173.269 65.2334L173.431 65.2334Z" fill="#386097"/>
<path d="M179.148 62.5033C180.152 62.4612 181.142 62.7482 181.967 63.3206C182.72 63.8991 183.201 64.762 183.298 65.7064H182.013C181.922 65.0793 181.587 64.5134 181.081 64.1316C180.513 63.7453 179.835 63.5534 179.148 63.5846C178.216 63.5532 177.324 63.964 176.742 64.6927C176.1 65.5516 175.78 66.6087 175.837 67.6796C175.804 68.6738 176.128 69.647 176.749 70.4238C177.33 71.1501 178.219 71.5606 179.148 71.5318C179.967 71.5596 180.763 71.2634 181.364 70.7075C181.957 70.1424 182.277 69.3494 182.243 68.5315V68.3829H179.162V67.3016H183.392V72.3836H182.581L182.243 71.1805C181.892 71.64 181.433 72.0046 180.905 72.2414C180.354 72.4916 179.754 72.6184 179.148 72.6131C177.902 72.6428 176.703 72.1302 175.864 71.208C174.99 70.271 174.519 69.0281 174.553 67.7472C174.497 66.3846 174.93 65.0469 175.776 63.9767C176.609 62.9864 177.856 62.4414 179.148 62.5033Z" fill="#386097"/>
<path d="M188.88 65.2334V66.4498C188.174 66.3902 187.477 66.6393 186.968 67.1327C186.508 67.7427 186.289 68.5004 186.353 69.2615V72.3837H185.204V65.396H186.285V66.8687H186.312C186.697 65.8773 187.654 65.2265 188.718 65.2334L188.88 65.2334Z" fill="#386097"/>
<path d="M192.448 65.2334C193.382 65.1876 194.289 65.5532 194.929 66.2337C196.146 67.7853 196.146 69.967 194.929 71.5185C194.297 72.2139 193.387 72.5906 192.448 72.5456C191.521 72.5865 190.622 72.2243 189.982 71.5523C189.339 70.821 189.007 69.8683 189.056 68.8962C189.005 67.9222 189.332 66.9662 189.968 66.2267C190.611 65.5501 191.516 65.1874 192.448 65.2334ZM190.272 68.8962C190.241 69.5839 190.456 70.2602 190.881 70.8026C191.609 71.6681 192.902 71.7792 193.767 71.0505C193.855 70.9769 193.936 70.8961 194.01 70.8089C194.44 70.2671 194.659 69.5873 194.625 68.8962C194.656 68.2068 194.44 67.529 194.017 66.9842C193.635 66.5036 193.049 66.2307 192.435 66.2471C191.831 66.2385 191.258 66.5137 190.888 66.9905C190.462 67.5321 190.244 68.2079 190.272 68.8962Z" fill="#386097"/>
<path d="M198.179 65.396V70.1535C198.165 70.5222 198.302 70.8808 198.557 71.1468C198.836 71.4138 199.213 71.5533 199.598 71.5319C200.175 71.5716 200.739 71.354 201.139 70.9377C201.504 70.504 201.692 69.9492 201.666 69.3833V65.396H202.815V72.3837H201.734V71.2756H201.707C201.261 72.1046 200.375 72.6 199.436 72.5456C197.832 72.5456 197.03 71.7168 197.03 70.0591V65.396H198.179Z" fill="#386097"/>
<path d="M207.749 65.2333C208.646 65.1925 209.512 65.5635 210.101 66.2407C210.706 66.9949 211.013 67.9446 210.965 68.9102C211.011 69.8664 210.7 70.8055 210.094 71.5459C209.512 72.2129 208.66 72.5804 207.776 72.5456C207.339 72.5448 206.906 72.4553 206.505 72.2823C206.098 72.1132 205.754 71.8228 205.519 71.4509H205.491V75.0602H204.342V65.396H205.491V66.3421H205.519C205.97 65.5566 206.85 65.1194 207.749 65.2333ZM205.451 68.8828C205.414 69.5741 205.617 70.257 206.026 70.8159C206.423 71.3002 207.028 71.5661 207.654 71.5318C208.255 71.5625 208.833 71.2975 209.202 70.8222C209.6 70.2365 209.792 69.5353 209.749 68.8286C209.779 68.157 209.571 67.4963 209.161 66.9637C208.774 66.488 208.186 66.2225 207.573 66.2471C206.975 66.224 206.401 66.4847 206.026 66.9504C205.614 67.5078 205.411 68.1913 205.451 68.8828H205.451Z" fill="#386097"/>
</svg>
