<svg width="362" height="92" viewBox="0 0 362 92" fill="none" xmlns="http://www.w3.org/2000/svg">
<path d="M144.424 18.1648C141.878 15.6178 137.751 15.6159 135.203 18.1604L125.342 28.0006C122.797 30.5486 122.799 34.6773 125.347 37.2223C127.891 39.7632 132.012 39.7654 134.558 37.2273L144.418 27.3837C146.959 24.837 146.962 20.7145 144.424 18.1648Z" fill="#5C7D70"/>
<path d="M144.418 61.3665L134.558 51.5249C132.01 48.9798 127.882 48.9821 125.337 51.53C122.791 54.0779 122.794 58.2066 125.342 60.7517L135.203 70.5919C136.422 71.8172 138.081 72.5038 139.809 72.4989C143.41 72.5003 146.33 69.5827 146.331 65.9823C146.332 64.2507 145.643 62.59 144.418 61.3665Z" fill="#4C79AF"/>
<path d="M124.687 44.374V44.3525C124.688 42.6303 124.004 40.9785 122.784 39.762L101.202 18.1605C98.6614 15.6137 94.5376 15.6083 91.9908 18.1484C89.444 20.6886 89.4386 24.8123 91.9787 27.3591C91.981 27.3614 91.9832 27.3636 91.9854 27.3658L108.975 44.374L91.9848 61.3808C89.4424 63.9259 89.4446 68.0502 91.9898 70.5926C94.5349 73.1349 98.6592 73.1327 101.202 70.5875L122.783 48.9831C124.004 47.7688 124.689 46.1172 124.686 44.3954C124.687 44.3884 124.688 44.3812 124.687 44.374H124.687Z" fill="#C25700"/>
<path d="M166.493 62.6854L169.549 70.835L172.619 62.6854H174.385V72.3836H173.162V64.3153H173.135L170.106 72.3836H169.006L165.977 64.3153H165.95V72.3836H164.728V62.6854H166.493Z" fill="#386097"/>
<path d="M179.016 65.1982C180.764 65.1982 181.638 65.8276 181.638 67.0864V71.1343C181.638 71.3968 181.76 71.5279 182.005 71.5276C182.126 71.5274 182.246 71.5043 182.358 71.4597V72.3568C182.103 72.4902 181.817 72.5555 181.529 72.5463C180.877 72.5463 180.551 72.1841 180.552 71.4597C179.939 72.1833 179.027 72.5842 178.079 72.5463C177.469 72.5821 176.866 72.4017 176.375 72.037C175.952 71.6737 175.723 71.1335 175.757 70.5769C175.731 70.0133 175.955 69.467 176.368 69.0828C176.775 68.7121 177.722 68.4315 179.207 68.2409C179.566 68.2235 179.917 68.1236 180.232 67.9488C180.411 67.8127 180.511 67.5961 180.497 67.3715C180.497 66.6018 179.976 66.217 178.935 66.217C178.484 66.1852 178.035 66.2969 177.651 66.536C177.349 66.7842 177.176 67.1571 177.183 67.5483H176.028C176.119 65.9814 177.115 65.198 179.016 65.1982ZM176.979 70.4955C176.965 70.7916 177.097 71.0757 177.332 71.256C177.628 71.455 177.982 71.5505 178.337 71.5276C178.888 71.5504 179.431 71.388 179.879 71.0664C180.249 70.8205 180.475 70.4094 180.484 69.9656V68.7573C180.238 68.9151 179.959 69.0128 179.669 69.0424L178.487 69.2185C178.076 69.2511 177.682 69.3943 177.346 69.6331C177.096 69.848 176.961 70.1667 176.979 70.4955Z" fill="#386097"/>
<path d="M186.786 65.1982C188.398 65.1982 189.204 66.0358 189.204 67.711V72.3836H188.049V67.5886C188.059 67.2273 187.928 66.8764 187.683 66.611C187.397 66.3325 187.007 66.1892 186.609 66.2169C186.037 66.1813 185.478 66.4 185.081 66.8147C184.711 67.2485 184.519 67.8068 184.545 68.3767V72.3836H183.391V65.3616H184.477V66.4751H184.504C184.962 65.6517 185.845 65.1574 186.786 65.1982Z" fill="#386097"/>
<path d="M194.447 65.1983C195.348 65.1572 196.218 65.5301 196.81 66.2106C197.418 66.9684 197.727 67.9227 197.679 68.8932C197.724 69.8539 197.412 70.7975 196.803 71.5418C196.219 72.2119 195.362 72.5812 194.474 72.5463C194.034 72.5456 193.6 72.4556 193.197 72.2818C192.788 72.112 192.442 71.8202 192.206 71.4463H192.178V75.0733H191.023V65.3617H192.178V66.3125H192.206C192.659 65.5229 193.543 65.0834 194.447 65.1983ZM192.138 68.8656C192.1 69.5603 192.304 70.2467 192.715 70.8082C193.115 71.295 193.722 71.5622 194.351 71.5276C194.955 71.5583 195.536 71.292 195.907 70.8145C196.307 70.226 196.5 69.5213 196.457 68.8111C196.487 68.1363 196.278 67.4723 195.866 66.9371C195.477 66.4591 194.886 66.1922 194.27 66.217C193.669 66.1934 193.092 66.4555 192.715 66.9237C192.302 67.4836 192.097 68.1707 192.138 68.8656Z" fill="#386097"/>
<path d="M201.998 65.1983C202.936 65.1522 203.847 65.5196 204.49 66.2035C205.713 67.7627 205.713 69.955 204.49 71.5142C203.855 72.213 202.941 72.5915 201.998 72.5463C201.066 72.5875 200.163 72.2235 199.519 71.5482C198.874 70.8134 198.54 69.8559 198.589 68.879C198.538 67.9002 198.867 66.9395 199.506 66.1964C200.152 65.5166 201.062 65.152 201.998 65.1983ZM199.812 68.879C199.78 69.5701 199.997 70.2497 200.423 70.7947C201.155 71.6646 202.454 71.7761 203.324 71.0439C203.411 70.9699 203.493 70.8887 203.567 70.8011C203.999 70.2565 204.219 69.5734 204.185 68.879C204.216 68.1863 203.999 67.5051 203.574 66.9576C203.19 66.4748 202.601 66.2004 201.985 66.217C201.378 66.2083 200.802 66.4849 200.43 66.964C200.002 67.5082 199.783 68.1874 199.812 68.8791V68.879Z" fill="#386097"/>
<path d="M207.064 65.3616L208.653 71.1067H208.68L210.093 65.3616H211.356L212.836 71.1067H212.851L214.426 65.3616H215.621L213.394 72.3702L213.38 72.3836H212.157L210.718 66.8013H210.704L209.292 72.3836H208.042L205.788 65.3616H207.064Z" fill="#386097"/>
<path d="M219.235 65.1982C220.141 65.1571 221.011 65.5569 221.571 66.2714C222.163 67.0855 222.46 68.0771 222.412 69.0827V69.2185H217.156V69.3006C217.126 69.898 217.336 70.4825 217.741 70.9234C218.166 71.341 218.748 71.5602 219.343 71.5276C220.218 71.6264 221.017 71.024 221.163 70.1559H222.304C222.2 70.8578 221.837 71.4952 221.285 71.9422C220.711 72.3607 220.013 72.5735 219.303 72.5463C218.339 72.6093 217.404 72.2049 216.79 71.4597C216.209 70.7065 215.907 69.7758 215.934 68.8252C215.902 67.8721 216.237 66.943 216.871 66.2304C217.468 65.5546 218.333 65.1769 219.235 65.1982ZM221.19 68.1998C221.17 67.666 220.949 67.1593 220.572 66.7807C220.197 66.4051 219.683 66.2011 219.153 66.2169C218.646 66.206 218.156 66.3995 217.794 66.7538C217.41 67.1402 217.183 67.6554 217.156 68.1998L221.19 68.1998Z" fill="#386097"/>
<path d="M227.262 65.1982V66.4207C226.552 66.3607 225.851 66.611 225.34 67.1069C224.878 67.7198 224.658 68.4813 224.721 69.2461V72.3836H223.567V65.3616H224.654V66.8416H224.681C225.068 65.8453 226.03 65.1913 227.098 65.1982L227.262 65.1982Z" fill="#386097"/>
<path d="M233.007 62.4548C234.016 62.4126 235.01 62.701 235.839 63.2761C236.596 63.8571 237.08 64.7244 237.177 65.6736H235.887C235.794 65.0434 235.458 64.4749 234.949 64.0911C234.378 63.703 233.697 63.5101 233.007 63.5414C232.071 63.5098 231.174 63.9226 230.589 64.6549C229.944 65.518 229.622 66.5803 229.679 67.6566C229.646 68.6556 229.971 69.6335 230.596 70.4141C231.18 71.144 232.073 71.5565 233.007 71.5276C233.83 71.5555 234.63 71.2578 235.234 70.6992C235.83 70.1314 236.152 69.3345 236.117 68.5126V68.3633H233.021V67.2766H237.272V72.3836H236.457L236.117 71.1746C235.765 71.6361 235.303 72.0025 234.773 72.2407C234.219 72.492 233.616 72.6195 233.007 72.6142C231.755 72.6441 230.55 72.1289 229.707 71.2022C228.828 70.2607 228.355 69.0117 228.389 67.7245C228.332 66.355 228.768 65.0107 229.618 63.9355C230.455 62.9401 231.709 62.3924 233.007 62.4548Z" fill="#386097"/>
<path d="M242.787 65.1982V66.4207C242.077 66.3607 241.376 66.611 240.865 67.1069C240.403 67.7198 240.183 68.4813 240.247 69.2461V72.3836H239.092V65.3616H240.179V66.8416H240.206C240.593 65.8453 241.555 65.1913 242.624 65.1982L242.787 65.1982Z" fill="#386097"/>
<path d="M246.372 65.1983C247.31 65.1522 248.221 65.5196 248.865 66.2035C250.087 67.7627 250.087 69.955 248.865 71.5142C248.229 72.213 247.315 72.5915 246.372 72.5463C245.44 72.5875 244.536 72.2235 243.893 71.5482C243.247 70.8133 242.914 69.8558 242.963 68.879C242.912 67.9002 243.24 66.9395 243.879 66.1964C244.525 65.5166 245.435 65.152 246.372 65.1983ZM244.185 68.879C244.153 69.5701 244.37 70.2497 244.796 70.7947C245.529 71.6646 246.827 71.7761 247.697 71.0439C247.785 70.9699 247.866 70.8887 247.941 70.8011C248.373 70.2566 248.593 69.5735 248.559 68.879C248.59 68.1863 248.373 67.5051 247.948 66.9576C247.564 66.4747 246.975 66.2004 246.358 66.217C245.751 66.2083 245.176 66.4849 244.803 66.964C244.376 67.5082 244.156 68.1874 244.185 68.8791V68.879Z" fill="#386097"/>
<path d="M252.132 65.3616V70.1425C252.117 70.513 252.255 70.8733 252.511 71.1406C252.792 71.409 253.17 71.5491 253.558 71.5276C254.137 71.5675 254.704 71.3489 255.106 70.9305C255.472 70.4947 255.661 69.9371 255.635 69.3685V65.3616H256.79V72.3836H255.703V71.2701H255.677C255.229 72.1031 254.339 72.6009 253.394 72.5463C251.783 72.5463 250.977 71.7134 250.977 70.0477V65.3616H252.132Z" fill="#386097"/>
<path d="M261.747 65.1982C262.649 65.1572 263.519 65.53 264.111 66.2105C264.719 66.9684 265.028 67.9228 264.98 68.8931C265.026 69.8539 264.714 70.7977 264.104 71.5417C263.519 72.212 262.663 72.5814 261.774 72.5463C261.335 72.5456 260.901 72.4555 260.497 72.2817C260.089 72.1118 259.743 71.82 259.506 71.4462H259.479V75.0732H258.324V65.3616H259.479V66.3124H259.506C259.96 65.5231 260.844 65.0837 261.747 65.1982ZM259.438 68.8655C259.401 69.5602 259.605 70.2465 260.016 70.8081C260.415 71.2949 261.023 71.562 261.652 71.5276C262.256 71.5584 262.837 71.2921 263.208 70.8145C263.607 70.2259 263.801 69.5213 263.757 68.8111C263.788 68.1362 263.579 67.4723 263.167 66.9371C262.778 66.459 262.186 66.1922 261.571 66.2169C260.97 66.1937 260.393 66.4557 260.016 66.9236C259.603 67.4837 259.398 68.1707 259.438 68.8655Z" fill="#386097"/>
<path d="M180.334 26.7656V29.3152H167.649V36.5508H179.473V39.1011H167.649V46.9741H180.43V49.5237H164.62V26.7656H180.334Z" fill="#386097"/>
<path d="M186.294 33.0448L190.215 38.782H190.247L194.359 33.0448H197.61L191.936 40.6306L198.312 49.5237H194.837L190.247 42.7026L185.657 49.5237H182.375L188.557 40.8541L182.82 33.0448L186.294 33.0448Z" fill="#386097"/>
<path d="M207.969 32.6621C210.083 32.5658 212.125 33.4404 213.515 35.0369C214.941 36.8156 215.667 39.0551 215.554 41.3323C215.662 43.5872 214.929 45.8017 213.499 47.5478C212.128 49.1212 210.118 49.9885 208.032 49.9064C207.002 49.9043 205.983 49.6927 205.036 49.2846C204.078 48.8861 203.265 48.2015 202.71 47.3243H202.646V55.8347H199.937V33.0448H202.646V35.276H202.71C203.581 33.5336 205.334 32.6623 207.969 32.6621ZM202.55 41.268C202.462 42.8983 202.941 44.5087 203.905 45.8267C204.843 46.9691 206.269 47.5962 207.745 47.5153C209.162 47.5876 210.525 46.9629 211.395 45.8422C212.334 44.4612 212.788 42.8075 212.686 41.1406C212.758 39.5568 212.267 37.9986 211.299 36.7425C210.387 35.621 208.999 34.9951 207.554 35.0532C206.144 34.9985 204.791 35.6127 203.905 36.71C202.935 38.0248 202.456 39.6371 202.55 41.2679V41.268Z" fill="#386097"/>
<path d="M225.021 32.6621C227.148 32.5652 229.191 33.5035 230.503 35.1805C231.893 37.0907 232.591 39.418 232.48 41.778V42.0971H220.144V42.2881C220.073 43.6898 220.567 45.0615 221.514 46.0969C222.514 47.0766 223.879 47.5913 225.276 47.5153C227.634 47.5153 229.058 46.4424 229.547 44.2965H232.224C231.98 45.9435 231.127 47.439 229.834 48.488C228.486 49.4703 226.847 49.97 225.18 49.9064C222.588 49.9064 220.622 49.0563 219.284 47.3561C217.922 45.5879 217.212 43.4035 217.275 41.1725C217.2 38.9362 217.987 36.7565 219.475 35.085C220.875 33.4984 222.905 32.6116 225.021 32.6621ZM229.611 39.7067C229.563 38.4535 229.045 37.2643 228.161 36.3754C227.28 35.4942 226.075 35.0158 224.829 35.0532C223.641 35.0273 222.492 35.4809 221.642 36.3117C220.74 37.219 220.206 38.4286 220.144 39.7067H229.611Z" fill="#386097"/>
<path d="M243.476 32.6621V35.5307C241.436 35.5307 239.932 36.0675 238.965 37.1409C237.998 38.214 237.515 39.8873 237.515 42.1608V49.5237H234.806V33.0448H237.356V36.519H237.42C238.673 33.9482 240.564 32.6626 243.093 32.6621L243.476 32.6621Z" fill="#386097"/>
<path d="M248.384 26.7656V30.0806H245.675V26.7656H248.384ZM248.384 33.0448V49.5237H245.675V33.0448H248.384Z" fill="#386097"/>
<path d="M257.531 32.6621C259.763 32.6621 261.415 33.0924 262.488 33.9531C263.614 34.9242 264.26 36.3385 264.257 37.8256H261.548V37.7938C261.501 36.9692 261.07 36.2142 260.384 35.7542C259.588 35.2577 258.661 35.0133 257.723 35.0532C256.835 35.009 255.951 35.1957 255.157 35.5951C254.299 36.0436 253.967 37.1028 254.416 37.9608C254.561 38.239 254.779 38.473 255.046 38.6384C255.823 39.0977 256.675 39.4162 257.563 39.5793L260.114 40.1531C261.436 40.3905 262.682 40.9425 263.747 41.7625C264.589 42.5044 265.047 43.5901 264.99 44.711C265.052 46.2221 264.344 47.6616 263.11 48.5354C261.588 49.5257 259.791 50.0059 257.978 49.9064C256.203 50.0016 254.446 49.5147 252.973 48.5198C251.697 47.5076 250.966 45.9573 250.998 44.3283H253.706C253.705 45.2642 254.157 46.1428 254.918 46.6869C255.878 47.2933 257.004 47.5831 258.137 47.5153C260.793 47.5153 262.121 46.6973 262.121 45.0612C262.13 44.3545 261.759 43.6973 261.149 43.34C259.838 42.6934 258.435 42.2527 256.99 42.0334C255.432 41.8188 253.947 41.24 252.655 40.3441C251.775 39.6044 251.292 38.4961 251.348 37.3481C251.316 36.0106 251.941 34.7422 253.022 33.9531C254.339 33.0314 255.926 32.5769 257.531 32.6621Z" fill="#386097"/>
<path d="M263.908 28.0039C264.034 27.7141 264.215 27.4516 264.442 27.2312C264.669 27.0114 264.935 26.8369 265.228 26.717C266.47 26.1935 267.902 26.7674 268.439 28.0039C268.572 28.3074 268.638 28.6353 268.635 28.9663C268.639 29.3027 268.572 29.6362 268.439 29.9452C268.314 30.2363 268.134 30.5008 267.909 30.7246C267.686 30.9455 267.421 31.1202 267.129 31.2386C266.519 31.483 265.838 31.483 265.228 31.2386C264.934 31.1204 264.667 30.9458 264.442 30.7246C264.215 30.5018 264.034 30.2371 263.908 29.9452C263.775 29.6362 263.708 29.3028 263.712 28.9663C263.709 28.6353 263.776 28.3073 263.908 28.0039ZM264.311 29.8014C264.408 30.0484 264.553 30.2741 264.736 30.4659C264.919 30.6545 265.137 30.8048 265.378 30.9079C265.631 31.0163 265.904 31.0709 266.18 31.0683C266.452 31.0707 266.722 31.0161 266.972 30.9079C267.212 30.8042 267.429 30.654 267.611 30.4659C267.795 30.2743 267.939 30.0485 268.036 29.8014C268.141 29.5355 268.193 29.252 268.19 28.9663C268.193 28.6861 268.141 28.408 268.036 28.1478C267.842 27.655 267.459 27.2602 266.972 27.0511C266.722 26.9429 266.452 26.8883 266.18 26.8907C265.637 26.8859 265.116 27.1021 264.736 27.4897C264.553 27.6791 264.408 27.9027 264.311 28.1478C264.207 28.4081 264.154 28.6861 264.157 28.9663C264.154 29.252 264.206 29.5355 264.311 29.8014ZM266.331 27.5454C266.599 27.5243 266.866 27.596 267.087 27.7484C267.26 27.9044 267.35 28.1317 267.333 28.3639C267.351 28.5758 267.271 28.7844 267.117 28.9304C266.963 29.0541 266.776 29.1284 266.58 29.1433L267.398 30.407H266.92L266.141 29.1761H265.669V30.407H265.224V27.5454L266.331 27.5454ZM266.134 28.8158C266.235 28.8158 266.33 28.8126 266.419 28.8059C266.501 28.8011 266.582 28.7823 266.658 28.7502C266.727 28.7209 266.785 28.6719 266.825 28.6096C266.871 28.529 266.893 28.4368 266.888 28.3442C266.892 28.264 266.872 28.1844 266.832 28.115C266.796 28.0598 266.746 28.0147 266.688 27.9842C266.624 27.9522 266.555 27.9311 266.485 27.9219C266.41 27.9113 266.334 27.9058 266.259 27.9056H265.669V28.8158L266.134 28.8158Z" fill="#386097"/>
</svg>
