<svg width="362" height="92" viewBox="0 0 362 92" fill="none" xmlns="http://www.w3.org/2000/svg">
<path d="M130.905 51.4163C129.995 53.826 127.317 55.0567 124.896 54.1777C122.494 53.3272 121.237 50.6904 122.087 48.2884C122.092 48.2748 122.097 48.2612 122.102 48.2476L130.365 25.8222C131.273 23.4133 133.948 22.1807 136.37 23.0554C138.772 23.905 140.031 26.5412 139.181 28.9436C139.177 28.9562 139.172 28.9688 139.168 28.9813L130.905 51.4163Z" fill="#C25700"/>
<path d="M67.3282 65.9252C66.4211 68.3355 63.7453 69.5694 61.3232 68.6941C58.9193 67.8427 57.6609 65.2038 58.5123 62.8C58.5165 62.7883 58.5207 62.7766 58.5249 62.7649L67.9743 37.1245C68.8799 34.7134 71.5569 33.48 73.9781 34.3582C76.3773 35.2002 77.6397 37.8279 76.7976 40.2271C76.7908 40.2467 76.7838 40.2662 76.7767 40.2856L67.3282 65.9252Z" fill="#386097"/>
<path d="M81.8821 65.9252C80.976 68.3361 78.2997 69.5703 75.8778 68.6941C73.4758 67.8461 72.2161 65.2113 73.0642 62.8093C73.0694 62.7945 73.0748 62.7797 73.0801 62.7649L82.5281 37.1245C83.4341 34.7143 86.1102 33.4811 88.5311 34.3582C90.932 35.2009 92.1952 37.8304 91.3525 40.2313C91.3461 40.2495 91.3396 40.2676 91.333 40.2857L81.8821 65.9252Z" fill="#4C79AF"/>
<path d="M96.4271 65.9252C95.5227 68.3359 92.8473 69.5704 90.4262 68.6941C88.0259 67.8488 86.7652 65.2176 87.6105 62.8172C87.6167 62.7997 87.623 62.7823 87.6293 62.7649L97.0786 37.1245C97.9828 34.7139 100.659 33.4802 103.079 34.3582C105.478 35.2004 106.741 37.828 105.899 40.2273C105.892 40.2468 105.885 40.2663 105.878 40.2857L96.4271 65.9252Z" fill="#5C7D70"/>
<path d="M110.971 65.9252C110.063 68.3356 107.387 69.5693 104.964 68.6941C102.565 67.8487 101.306 65.2185 102.151 62.8194C102.158 62.8012 102.164 62.783 102.171 62.7649L115.785 25.8222C116.691 23.4131 119.366 22.1801 121.786 23.0554C124.189 23.9021 125.45 26.5361 124.603 28.9387C124.598 28.9529 124.593 28.9671 124.588 28.9813L110.971 65.9252Z" fill="#9D323D"/>
<path d="M301.218 38.0683C302.623 38.0711 303.759 39.2122 303.757 40.617C303.754 42.0217 302.613 43.1582 301.208 43.1554C299.803 43.1526 298.667 42.0115 298.669 40.6067C298.669 40.6045 298.669 40.6023 298.669 40.6C298.665 39.2064 299.791 38.0729 301.184 38.0682C301.196 38.0682 301.207 38.0682 301.218 38.0683ZM301.218 42.7852C302.417 42.8334 303.429 41.9002 303.477 40.7008C303.525 39.5015 302.592 38.4901 301.393 38.442C300.193 38.3938 299.182 39.327 299.134 40.5264C299.133 40.5509 299.132 40.5755 299.132 40.6C299.082 41.7555 299.978 42.733 301.133 42.7832C301.161 42.7845 301.19 42.7851 301.218 42.7852ZM300.235 39.1249H301.381C302.082 39.1249 302.414 39.4046 302.414 39.9764C302.439 40.3982 302.117 40.76 301.695 40.7845C301.674 40.7857 301.654 40.786 301.633 40.7856L302.48 42.0988H301.982L301.182 40.816H300.694V42.0988H300.235L300.235 39.1249ZM300.694 40.4416H301.172C301.581 40.4416 301.952 40.4221 301.952 39.957C301.952 39.5629 301.618 39.496 301.306 39.496H300.694V40.4416Z" fill="#386097"/>
<path d="M155.059 38.281L162.296 57.5795L169.565 38.2809H173.747V61.2459H170.852V42.1408H170.787L163.615 61.2459H161.009L153.837 42.1408H153.773V61.2459H150.878V38.281H155.059Z" fill="#386097"/>
<path d="M184.627 44.231C188.765 44.231 190.834 45.7213 190.835 48.7019V58.2869C190.835 58.9087 191.124 59.2195 191.703 59.2192C191.989 59.2182 192.273 59.1637 192.539 59.0586V61.1816C191.935 61.498 191.259 61.6531 190.577 61.6321C189.033 61.6321 188.261 60.7743 188.262 59.0586C186.811 60.7719 184.651 61.7212 182.408 61.6321C180.962 61.7163 179.533 61.2892 178.371 60.4257C177.37 59.5653 176.828 58.2862 176.908 56.9684C176.847 55.6337 177.377 54.3399 178.355 53.4298C179.32 52.551 181.56 51.8864 185.077 51.436C185.929 51.3942 186.76 51.1576 187.506 50.7443C187.93 50.4219 188.165 49.9091 188.133 49.3772C188.133 47.5554 186.9 46.6443 184.434 46.6438C183.366 46.5682 182.302 46.8326 181.395 47.3991C180.678 47.9864 180.269 48.8691 180.285 49.7955H177.551C177.765 46.0863 180.124 44.2315 184.627 44.231ZM179.802 56.775C179.769 57.4762 180.081 58.1492 180.639 58.576C181.339 59.0471 182.176 59.2732 183.019 59.2192C184.324 59.273 185.609 58.8882 186.67 58.1263C187.544 57.5443 188.079 56.5711 188.101 55.5207V52.6581C187.52 53.0328 186.858 53.2642 186.171 53.3335L183.373 53.7518C182.4 53.8282 181.466 54.1672 180.671 54.7326C180.08 55.2416 179.759 55.9963 179.802 56.775V56.775Z" fill="#386097"/>
<path d="M203.121 44.231C206.938 44.231 208.846 46.2146 208.846 50.1817V61.2459H206.112V49.8919C206.199 48.1785 204.88 46.7193 203.167 46.6326C203.012 46.6248 202.857 46.6285 202.703 46.6438C201.347 46.5596 200.023 47.0772 199.084 48.0587C198.207 49.0858 197.753 50.4079 197.814 51.7572V61.2459H195.08V44.6172H197.653V47.2549H197.717C198.8 45.3051 200.892 44.1344 203.121 44.231Z" fill="#386097"/>
<path d="M220.56 44.231C222.694 44.1339 224.755 45.0164 226.157 46.6274C227.596 48.4223 228.328 50.6822 228.215 52.9801C228.323 55.2554 227.584 57.4901 226.141 59.2521C224.757 60.8397 222.729 61.7149 220.625 61.6321C219.585 61.63 218.556 61.4165 217.601 61.0046C216.634 60.6025 215.814 59.9117 215.253 59.0265H215.189V67.6142H212.455V44.6171H215.189V46.8686H215.253C216.132 45.1105 217.901 44.2312 220.56 44.231ZM215.093 52.9151C215.004 54.5601 215.487 56.1853 216.459 57.5152C217.406 58.6682 218.846 59.3011 220.335 59.2192C221.765 59.2919 223.14 58.6616 224.018 57.531C224.965 56.1372 225.423 54.4686 225.32 52.7866C225.393 51.1884 224.897 49.6161 223.921 48.3485C223 47.2169 221.6 46.5852 220.142 46.6439C218.719 46.5888 217.354 47.2085 216.459 48.3157C215.481 49.6426 214.998 51.2696 215.093 52.9151V52.9151Z" fill="#386097"/>
<path d="M238.211 44.231C240.432 44.122 242.589 44.9921 244.113 46.6117C247.008 50.3038 247.008 55.495 244.113 59.1871C242.609 60.8419 240.445 61.7385 238.211 61.6321C236.005 61.7294 233.864 60.8672 232.341 59.2678C230.812 57.528 230.022 55.261 230.138 52.948C230.018 50.6301 230.796 48.3551 232.309 46.5953C233.838 44.9846 235.993 44.1211 238.211 44.231ZM233.033 52.9479C232.957 54.5839 233.471 56.1927 234.48 57.4824C236.213 59.5423 239.287 59.808 241.346 58.0759C241.555 57.9001 241.749 57.7071 241.926 57.4988C242.95 56.2097 243.47 54.5922 243.389 52.9479C243.463 51.3071 242.95 49.6937 241.942 48.3964C241.033 47.2536 239.639 46.6046 238.179 46.6438C236.742 46.6233 235.378 47.2782 234.496 48.4128C233.483 49.7018 232.964 51.3101 233.033 52.948L233.033 52.9479Z" fill="#386097"/>
<path d="M250.207 44.6172L253.971 58.2227H254.035L257.38 44.6172H260.371L263.877 58.2227H263.909L267.641 44.6172H270.47L265.196 61.2138L265.163 61.2459H262.269L258.859 48.0266H258.827L255.482 61.2459H252.523L247.184 44.6172L250.207 44.6172Z" fill="#386097"/>
<path d="M278.895 44.231C281.041 44.1332 283.102 45.0801 284.427 46.7723C285.83 48.6999 286.533 51.0483 286.421 53.4298V53.7518H273.973V53.9445C273.902 55.359 274.4 56.7432 275.356 57.7879C276.364 58.7766 277.742 59.2959 279.152 59.2192C281.532 59.2192 282.969 58.1365 283.462 55.9712H286.163C285.917 57.6331 285.056 59.1423 283.751 60.2008C282.391 61.192 280.737 61.6962 279.055 61.6321C276.439 61.6321 274.456 60.7743 273.105 59.0586C271.731 57.2744 271.015 55.0701 271.079 52.8187C271.002 50.5621 271.797 48.3626 273.298 46.676C274.711 45.0749 276.76 44.18 278.895 44.231ZM283.526 51.3396C283.478 50.0751 282.956 48.875 282.063 47.978C281.174 47.0889 279.958 46.6061 278.701 46.6438C277.502 46.6177 276.343 47.0755 275.485 47.9138C274.575 48.8293 274.036 50.0499 273.973 51.3396H283.526Z" fill="#386097"/>
<path d="M297.967 44.231V47.1257C295.908 47.1257 294.391 47.6673 293.415 48.7505C292.439 49.8334 291.952 51.5219 291.952 53.816V61.2459H289.218V44.6173H291.791V48.123H291.855C293.12 45.5288 295.029 44.2315 297.581 44.2311L297.967 44.231Z" fill="#386097"/>
</svg>
