<svg width="97" height="30" viewBox="0 0 97 30" fill="none" xmlns="http://www.w3.org/2000/svg">
<g clip-path="url(#clip0_194_21084)">
<path d="M26.6773 18.8933C25.1001 18.8933 23.6222 18.2256 22.2795 17.1386L22.6065 15.604L22.6207 15.5472C22.9118 13.9133 23.8355 11.1708 26.6773 11.1708C28.8085 11.1708 30.542 12.9044 30.542 15.0356C30.5348 17.1598 28.8015 18.8933 26.6773 18.8933ZM26.6773 7.25639C23.0468 7.25639 20.2336 9.61505 19.0899 13.494C17.3421 10.8725 16.0206 7.72531 15.2463 5.07532H11.3389V15.2416C11.3389 17.2451 9.70488 18.8789 7.70141 18.8789C5.69795 18.8789 4.06409 17.2451 4.06409 15.2416V5.07532H0.156295V15.2416C0.142079 19.4049 3.53091 22.822 7.69402 22.822C11.8573 22.822 15.2462 19.4049 15.2462 15.2416V13.5367C16.0062 15.1209 16.9369 16.7193 18.0665 18.1403L15.6722 29.3934H19.6722L21.4055 21.2306C22.9258 22.2039 24.6736 22.815 26.6771 22.815C30.9609 22.815 34.4493 19.3054 34.4493 15.0214C34.4493 10.7445 30.9611 7.25639 26.6773 7.25639Z" fill="black"/>
<path d="M46.3771 7.69679L48.8992 17.8631L51.6771 7.69679H54.9877L50.718 22.3886H47.4073L44.7859 12.1582L42.1714 22.3814H38.8608L34.5908 7.68977H37.9016L40.6793 17.8561L43.2014 7.68977H46.377V7.69698L46.3771 7.69679ZM62.909 7.25629C58.611 7.25629 55.1298 10.7444 55.1298 15.0355C55.1298 19.3337 58.618 22.8149 62.909 22.8149C67.2073 22.8149 70.6954 19.3337 70.6954 15.0355C70.6954 10.7374 67.2073 7.25629 62.909 7.25629ZM62.909 19.6179C60.38 19.6179 58.3339 17.5718 58.3339 15.0427C58.3339 12.5134 60.387 10.4675 62.909 10.4675C65.4383 10.4675 67.4842 12.5134 67.4842 15.0427C67.4842 17.5647 65.4383 19.6179 62.909 19.6179ZM80.1513 10.9861C77.9278 10.9861 76.1304 12.7906 76.1304 15.0071V22.3814H72.7982V7.69679H76.1304V9.95595C76.1304 9.95595 77.5512 7.68958 80.4711 7.68958H81.4941V10.9861H80.1513ZM91.3338 14.4672C93.6993 13.1315 95.3051 10.5953 95.3051 7.68958H91.9729C91.9729 10.1406 89.9838 12.1298 87.5329 12.1298H87.0852V0.606571H83.7534V22.3812H87.0852V15.4618H87.4832C87.81 15.4618 88.2363 15.675 88.4281 15.9377L93.1594 22.3814H97.1522L91.3338 14.4672Z" fill="black"/>
</g>
<defs>
<clipPath id="clip0_194_21084">
<rect width="97" height="30" fill="white"/>
</clipPath>
</defs>
</svg>
