<svg width="102" height="30" viewBox="0 0 102 30" fill="none" xmlns="http://www.w3.org/2000/svg">
<path fill-rule="evenodd" clip-rule="evenodd" d="M18.3292 4.64742H2.79761C2.15592 4.64741 1.54047 4.9021 1.08642 5.35553C0.632376 5.80897 0.376861 6.42408 0.375996 7.06576V22.5745C0.374707 22.8934 0.436393 23.2093 0.557513 23.5042C0.678633 23.7992 0.856803 24.0673 1.0818 24.2932C1.3068 24.5191 1.57419 24.6984 1.86863 24.8207C2.16307 24.943 2.47877 25.0059 2.79761 25.0059H18.3292C18.6478 25.0055 18.9631 24.9422 19.2572 24.8197C19.5513 24.6972 19.8183 24.5179 20.0429 24.292C20.2676 24.0662 20.4454 23.7982 20.5664 23.5035C20.6873 23.2088 20.7489 22.8931 20.7476 22.5745V7.06576C20.7467 6.42464 20.4916 5.81003 20.0383 5.35669C19.585 4.90335 18.9703 4.64828 18.3292 4.64742ZM9.16168 19.3109C9.16126 19.4175 9.13979 19.5229 9.09852 19.6211C9.05724 19.7194 8.99697 19.8085 8.92116 19.8834C8.84536 19.9583 8.7555 20.0175 8.65676 20.0576C8.55802 20.0977 8.45234 20.1179 8.34578 20.117H4.9516C4.73837 20.1162 4.53417 20.0308 4.3837 19.8798C4.23323 19.7287 4.14875 19.5241 4.14875 19.3109V9.20997C4.14875 8.99674 4.23323 8.79219 4.3837 8.64111C4.53417 8.49003 4.73837 8.40471 4.9516 8.40385H8.34578C8.55931 8.40471 8.76385 8.48992 8.91484 8.64091C9.06583 8.7919 9.15103 8.99644 9.15189 9.20997L9.16168 19.3109ZM16.9944 14.6733C16.9944 14.78 16.9732 14.8856 16.9321 14.984C16.891 15.0825 16.8307 15.1718 16.7548 15.2468C16.6789 15.3218 16.5889 15.3809 16.49 15.4209C16.391 15.4608 16.2852 15.4807 16.1785 15.4794H12.7843C12.5708 15.4785 12.3662 15.3933 12.2153 15.2423C12.0643 15.0914 11.9791 14.8868 11.9782 14.6733V9.20997C11.9791 8.99644 12.0643 8.7919 12.2153 8.64091C12.3662 8.48992 12.5708 8.40471 12.7843 8.40385H16.1785C16.3917 8.40471 16.5959 8.49003 16.7464 8.64111C16.8969 8.79219 16.9813 8.99674 16.9813 9.20997L16.9944 14.6733Z" fill="black"/>
<path d="M42.5874 6.13889V10.0748H37.9237V25.0059H33.4264V10.0748H28.7627V6.13889H42.5874ZM48.3118 25.0059H44.154V10.3196H48.3118V13.1328C49.1016 11.1518 50.3647 9.97366 52.6133 10.1173V14.4677C49.676 14.2392 48.3118 14.9572 48.3118 17.3103V25.0059ZM75.3281 25.1202C72.603 25.1202 70.8896 23.8147 70.8896 20.7273V4.64742H75.0768V20.1529C75.0768 21.0439 75.6643 21.3605 76.3823 21.3605C76.5894 21.3647 76.7966 21.3548 77.0024 21.3311V24.9504C76.4548 25.0839 75.8914 25.141 75.3281 25.1202ZM84.0616 25.1202C81.3365 25.1202 79.6198 23.8147 79.6198 20.7273V4.64742H83.8071V20.1529C83.8071 21.0439 84.3978 21.3605 85.1288 21.3605C85.3349 21.3647 85.541 21.3549 85.7457 21.3311V24.9504C85.1949 25.0851 84.6281 25.1423 84.0616 25.1202ZM87.7528 17.6562C87.7528 13.1198 90.3637 10.0161 94.861 10.0161C99.3582 10.0161 101.914 13.11 101.914 17.6562C101.914 22.2025 99.3289 25.3519 94.861 25.3519C90.3931 25.3519 87.7528 22.1633 87.7528 17.6562ZM91.829 17.6562C91.829 19.8657 92.7559 21.6183 94.861 21.6183C96.966 21.6183 97.8407 19.8657 97.8407 17.6562C97.8407 15.4468 96.9432 13.7399 94.861 13.7399C92.7788 13.7399 91.829 15.4435 91.829 17.6562ZM58.2267 18.9845C59.3909 19.1125 60.5609 19.181 61.7319 19.1901C64.9172 19.1901 67.6064 18.3351 67.6064 15.2509C67.6064 12.2582 64.8421 10.0096 61.5165 10.0096C57.0388 10.0096 54.17 13.2569 54.17 17.7933C54.17 22.5027 56.6439 25.2997 62.2345 25.2997C63.893 25.3132 65.5396 25.0188 67.0907 24.4315V20.9133C65.6548 21.3735 64.0393 21.8304 62.3813 21.8304C60.1555 21.8304 58.6053 21.0994 58.2267 18.9845ZM61.4316 13.2144C62.6098 13.2144 63.5562 14.014 63.5562 15.1073C63.5562 16.514 62.0713 16.9546 60.3611 16.9546C59.6333 16.9512 58.9068 16.8934 58.1876 16.7816C58.2419 16.0958 58.4386 15.4289 58.7652 14.8234C59.0273 14.3435 59.4124 13.9421 59.8811 13.6605C60.3497 13.3789 60.8849 13.2271 61.4316 13.221V13.2144Z" fill="black"/>
</svg>
