<svg width="96" height="30" viewBox="0 0 96 30" fill="none" xmlns="http://www.w3.org/2000/svg">
<g clip-path="url(#clip0_194_21088)">
<path d="M88.2276 14.5316H84.8255C82.6354 14.5316 81.4621 16.1717 81.4621 18.9048V28.785H75.0098V14.5306H72.2717C70.0816 14.5306 68.9092 16.1707 68.9092 18.9038V28.784H62.4559V9.25952H68.9092V12.2275C69.9656 9.92348 71.4125 9.25952 73.5639 9.25952H81.4631V12.2275C82.5195 9.92348 83.9663 9.25952 86.1178 9.25952H88.2286L88.2276 14.5316ZM61.0477 20.5449H47.595C47.9468 22.732 49.3154 23.9817 51.6224 23.9817C53.3428 23.9817 54.5558 23.2781 54.9472 22.0294L60.6563 23.6299C59.2491 27.027 55.7677 29.0971 51.6224 29.0971C44.6221 29.0971 41.4152 23.6685 41.4152 19.0227C41.4152 14.4543 44.2306 8.987 51.231 8.987C58.6614 8.987 61.125 14.5316 61.125 18.6323C61.1299 19.2707 61.1041 19.909 61.0477 20.5449ZM54.7906 16.7573C54.634 15.0776 53.4211 13.5168 51.232 13.5168C49.1975 13.5168 47.9865 14.4137 47.595 16.7573H54.7906ZM30.1536 28.784H35.8231L42.9017 9.2615H36.4107L32.969 20.6232L29.449 9.26051H22.9957L30.1536 28.784ZM3.71701 28.784H10.1307V14.5316H16.2332V28.785H22.6072V9.26051H10.1307V8.05051C10.1307 6.72259 11.0692 5.90304 12.5556 5.90304H16.2322V0.630978H11.5002C6.84556 0.630978 3.71701 3.48205 3.71701 7.65907V9.26051H0.0800781V14.5326H3.71701V28.784Z" fill="black"/>
<path d="M92.2182 29.369C94.4212 29.369 96.207 27.5852 96.207 25.3852C96.207 23.1853 94.4212 21.4025 92.2182 21.4025C90.0153 21.4025 88.2285 23.1862 88.2285 25.3862C88.2285 27.5862 90.0153 29.369 92.2182 29.369Z" fill="black"/>
</g>
<defs>
<clipPath id="clip0_194_21088">
<rect width="96" height="30" fill="white"/>
</clipPath>
</defs>
</svg>
