<svg width="135" height="30" viewBox="0 0 135 30" fill="none" xmlns="http://www.w3.org/2000/svg">
<path d="M11.8875 2.50089C13.0358 2.50089 14.0959 2.5901 15.0676 2.85423C16.0393 3.0309 16.8343 3.38425 17.541 3.82593C18.2477 4.26761 18.7777 4.88596 19.131 5.68187C19.4844 6.47601 19.661 7.44859 19.661 8.50862C19.661 9.74445 19.396 10.8054 18.7777 11.6004C18.2477 12.3945 17.3643 13.1012 16.3043 13.6312C17.806 14.0729 18.9543 14.8671 19.661 15.928C20.3677 16.988 20.8094 18.313 20.8094 19.8148C20.8094 21.0506 20.5444 22.1115 20.1027 22.9949C19.661 23.8782 18.9543 24.6732 18.1593 25.2033C17.3643 25.7342 16.3926 26.1758 15.3326 26.44C14.2725 26.7041 13.2125 26.8816 12.1525 26.8816H0.31543V2.50089H11.8875ZM11.1808 12.3945C12.1525 12.3945 12.9475 12.1295 13.5658 11.6878C14.1842 11.2462 14.4492 10.4511 14.4492 9.47944C14.4492 8.94942 14.3609 8.4194 14.1842 8.06606C14.0075 7.71272 13.7425 7.44771 13.3892 7.1827C13.0358 7.00603 12.6825 6.82935 12.2408 6.74102C11.7991 6.65268 11.3574 6.65268 10.8274 6.65268H5.70393V12.3945H11.1808ZM11.4458 22.8182C11.9758 22.8182 12.5058 22.7299 12.9475 22.6424C13.3892 22.5532 13.8309 22.3765 14.1842 22.1115C14.5375 21.8465 14.8026 21.5815 15.0676 21.1398C15.2442 20.6981 15.4209 20.1672 15.4209 19.5498C15.4209 18.313 15.0676 17.4297 14.3609 16.8104C13.6542 16.2804 12.6825 16.0163 11.5341 16.0163H5.70393V22.8182H11.4458ZM28.4946 22.7299C29.2013 23.4365 30.2614 23.7899 31.6747 23.7899C32.6464 23.7899 33.5298 23.5249 34.2365 23.0832C34.9432 22.5523 35.3849 22.0232 35.5615 21.4923H39.89C39.1833 23.6123 38.1233 25.1149 36.7099 26.0857C35.2965 26.9691 33.6181 27.5 31.5864 27.5C30.173 27.5 28.9363 27.2341 27.788 26.7924C26.6396 26.3507 25.7562 25.7333 24.9612 24.8499C24.1662 24.0549 23.5478 23.0832 23.1945 21.9339C22.7528 20.7856 22.5761 19.5498 22.5761 18.1355C22.5761 16.8104 22.7528 15.5746 23.1945 14.4254C23.6362 13.277 24.2545 12.3062 25.0495 11.4228C25.8446 10.6278 26.8163 9.92112 27.8763 9.47944C29.0247 9.03776 30.173 8.77275 31.5864 8.77275C33.0881 8.77275 34.4132 9.03776 35.5615 9.65611C36.7099 10.2745 37.5933 10.9812 38.3 12.0412C39.0066 13.0129 39.5367 14.1604 39.89 15.398C40.0667 16.6347 40.155 17.8714 40.0667 19.2847H27.2579C27.2579 20.6981 27.788 22.0232 28.4946 22.7299ZM34.0598 13.4546C33.4415 12.8362 32.4698 12.4829 31.3214 12.4829C30.5264 12.4829 29.908 12.6587 29.378 12.9245C28.848 13.1896 28.4946 13.542 28.1413 13.8962C27.788 14.2505 27.6113 14.6913 27.5229 15.1329C27.4346 15.5746 27.3463 15.9271 27.3463 16.2813H35.2965C35.1199 14.9563 34.6782 14.0729 34.0598 13.4546ZM46.9569 2.50089V11.6878H47.0452C47.6636 10.6278 48.4586 9.92112 49.4303 9.47944C50.402 9.03776 51.2854 8.77275 52.2571 8.77275C53.5821 8.77275 54.6421 8.94942 55.4372 9.30276C56.2322 9.65611 56.9389 10.1861 57.3806 10.8045C57.8222 11.4228 58.1756 12.2179 58.3522 13.1012C58.5289 13.9846 58.6173 14.9572 58.6173 16.1046V26.97H53.7588V16.988C53.7588 15.4863 53.4938 14.4263 53.0521 13.7196C52.6104 13.0129 51.8154 12.6595 50.667 12.6595C49.342 12.6595 48.3703 13.1012 47.8403 13.8088C47.2219 14.6029 46.9569 15.928 46.9569 17.6947V26.97H42.0984V2.50089H46.9569ZM62.1507 11.8645C62.6807 11.0695 63.2991 10.5395 64.0941 10.0086C64.8891 9.56689 65.7725 9.21443 66.7442 9.03687C67.7159 8.8602 68.6867 8.77186 69.6593 8.77186C70.5426 8.77186 71.426 8.8602 72.3986 8.94854C73.2819 9.03687 74.1653 9.301 74.8711 9.65523C75.6661 10.0077 76.1961 10.5386 76.727 11.1569C77.1678 11.7762 77.4329 12.6595 77.4329 13.7196V22.9949C77.4329 23.7899 77.5212 24.5849 77.6095 25.2925C77.6987 25.9992 77.962 26.6175 78.2279 26.97H73.2811C73.1035 26.7933 73.0152 26.44 72.9277 26.1758C72.8394 25.91 72.8394 25.5575 72.8394 25.2925C72.0443 26.0866 71.161 26.6175 70.101 26.97C69.0409 27.3233 67.9809 27.4117 66.9209 27.4117C66.0375 27.4117 65.3308 27.3233 64.5358 27.0592C63.8291 26.8825 63.2107 26.5283 62.5924 26.0866C62.0624 25.6449 61.6207 25.1149 61.2673 24.4091C61.0023 23.7015 60.8257 22.9949 60.8257 22.0232C60.8257 21.0506 61.0023 20.1672 61.3557 19.5498C61.709 18.9314 62.1507 18.4014 62.6807 17.9597C63.2107 17.6072 63.9174 17.253 64.6241 17.0763C65.3308 16.9006 66.0375 16.7239 66.8325 16.6347L68.9526 16.3697C69.6593 16.2813 70.2776 16.193 70.8076 16.1046C71.3377 15.928 71.7793 15.7513 72.1327 15.4863C72.486 15.2213 72.5744 14.8679 72.5744 14.3379C72.5744 13.8079 72.486 13.3662 72.3094 13.1012C72.1327 12.8362 71.8677 12.5712 71.6027 12.3945C71.3368 12.2179 70.9843 12.1295 70.631 12.0421C70.2776 11.9528 69.8359 11.9528 69.3943 11.9528C68.4226 11.9528 67.7159 12.1295 67.1859 12.5712C66.6558 13.0129 66.3025 13.7196 66.2142 14.6029H61.3557C61.3557 13.5429 61.709 12.5712 62.1507 11.8645ZM71.7785 18.7547C71.5143 18.8431 71.161 18.9314 70.8068 19.0197C70.4534 19.109 70.1001 19.109 69.6584 19.1964C69.3059 19.2847 68.8642 19.2847 68.51 19.3731L67.45 19.6381C67.0966 19.7264 66.7433 19.9031 66.5666 20.0798C66.3016 20.2564 66.1249 20.5215 65.9483 20.7865C65.6842 21.1398 65.6841 21.4931 65.6841 21.9348C65.6841 22.3765 65.7725 22.7299 65.9492 22.9949C66.1258 23.2599 66.3025 23.5258 66.5675 23.7015C66.8325 23.8782 67.1859 23.9674 67.5392 24.0549C67.8925 24.1423 68.245 24.1432 68.6867 24.1432C69.6593 24.1432 70.3651 23.9674 70.8951 23.7015C71.426 23.3491 71.7785 22.9949 72.0443 22.5532C72.3093 22.1115 72.486 21.6698 72.486 21.2281C72.5744 20.7865 72.5744 20.434 72.5744 20.1681V18.313C72.3094 18.4897 72.0443 18.6673 71.7785 18.7547ZM84.7656 9.21443V11.6878H84.854C85.4714 10.6278 86.2673 9.92112 87.2382 9.47944C88.2107 9.03776 89.2708 8.77275 90.2416 8.77275C91.5666 8.77275 92.6267 8.94942 93.4217 9.30276C94.305 9.65611 94.9243 10.1861 95.366 10.8045C95.8076 11.4228 96.1601 12.2179 96.4251 13.1012C96.6018 13.9846 96.691 14.9572 96.691 16.1046V26.97H91.8325V16.988C91.8325 15.4863 91.5666 14.4263 91.1249 13.7196C90.6833 13.0129 89.8882 12.5712 88.6515 12.5712C87.3265 12.5712 86.3539 13.1012 85.7364 13.8962C85.1181 14.6913 84.8531 16.0163 84.8531 17.783V27.0583H79.9946V9.21443H84.7656ZM107.555 12.3945C106.76 12.3945 106.141 12.5712 105.612 12.9254C105.082 13.2779 104.64 13.7196 104.287 14.3388C103.934 14.8688 103.757 15.4872 103.579 16.1939C103.404 16.9014 103.404 17.5189 103.404 18.2265C103.404 18.8439 103.492 19.5515 103.579 20.169C103.757 20.8766 103.933 21.4057 104.287 21.9357C104.64 22.4666 104.994 22.9083 105.524 23.2608C106.054 23.6141 106.671 23.7917 107.466 23.7917C108.615 23.7917 109.499 23.4383 110.205 22.8191C110.824 22.2016 111.266 21.3182 111.354 20.169H116.036C115.683 22.5541 114.8 24.3208 113.296 25.5584C111.796 26.7942 109.852 27.4134 107.466 27.4134C106.141 27.4134 104.904 27.1484 103.844 26.7067C102.695 26.2651 101.812 25.6467 101.018 24.8517C100.224 24.0567 99.6034 23.085 99.1618 22.0249C98.7201 20.8766 98.5443 19.7273 98.5443 18.4023C98.5443 16.9889 98.7201 15.7522 99.1618 14.6038C99.6034 13.4554 100.134 12.3954 100.928 11.5121C101.724 10.6287 102.695 10.0103 103.756 9.48032C104.904 9.03864 106.14 8.77363 107.554 8.77363C108.615 8.77363 109.586 8.9503 110.557 9.21531C111.528 9.48032 112.412 9.922 113.119 10.4511C113.914 10.982 114.532 11.6878 114.974 12.5712C115.416 13.3662 115.681 14.4263 115.769 15.5746H110.999C110.825 13.4546 109.676 12.3945 107.555 12.3945ZM26.2862 4.17927H36.1799V6.56435H26.2862V4.17927ZM123.368 22.7299C124.075 23.4365 125.223 23.7899 126.548 23.7899C127.52 23.7899 128.404 23.5249 129.109 23.0832C129.817 22.5523 130.259 22.0232 130.435 21.4923H134.676C133.968 23.6123 132.909 25.1149 131.495 26.0857C130.08 26.9691 128.403 27.5 126.371 27.5C124.958 27.5 123.721 27.2341 122.572 26.7924C121.484 26.387 120.514 25.7199 119.746 24.8499C118.951 24.0549 118.332 23.0832 117.979 21.9339C117.537 20.7856 117.361 19.5498 117.361 18.1355C117.361 16.8104 117.537 15.5746 117.979 14.4254C118.405 13.3175 119.034 12.2991 119.834 11.4228C120.629 10.6278 121.601 9.92112 122.661 9.47944C123.809 9.03776 125.046 8.77275 126.371 8.77275C127.872 8.77275 129.197 9.03776 130.258 9.65611C131.405 10.2745 132.289 10.9812 132.996 12.0412C133.703 13.0129 134.233 14.1604 134.586 15.398C134.939 16.6338 135.028 17.9588 134.939 19.3731H122.13C122.13 20.6981 122.661 22.0232 123.368 22.7299ZM129.021 13.4546C128.403 12.8362 127.43 12.4829 126.283 12.4829C125.488 12.4829 124.868 12.6587 124.338 12.9245C123.808 13.1896 123.367 13.542 123.103 13.8962C122.838 14.2505 122.572 14.6913 122.484 15.1329C122.397 15.5746 122.308 15.9271 122.308 16.2813H130.259C129.993 14.9563 129.551 14.0729 129.021 13.4546Z" fill="black"/>
</svg>
