<svg width="114" height="30" viewBox="0 0 114 30" fill="none" xmlns="http://www.w3.org/2000/svg">
<g clip-path="url(#clip0_194_21071)">
<path fill-rule="evenodd" clip-rule="evenodd" d="M36.5039 23.3336L37.9342 20.01C39.4791 21.1653 41.5374 21.7658 43.5682 21.7658C45.0673 21.7658 46.0162 21.1882 46.0162 20.3126C45.9933 17.8646 37.0357 19.7808 36.9669 13.6425C36.944 10.5252 39.7129 8.12306 43.637 8.12306C45.9704 8.12306 48.2992 8.70068 49.9633 10.0164L48.6247 13.4087C47.1027 12.4368 45.2094 11.7446 43.4078 11.7446C42.1838 11.7446 41.377 12.3222 41.377 13.0603C41.3999 15.4625 50.4263 14.1468 50.518 20.01C50.518 23.1961 47.8179 25.4378 43.9396 25.4378C41.0973 25.4332 38.4889 24.7639 36.5039 23.3336ZM91.4279 18.809C90.7127 20.0559 89.3741 20.9086 87.8246 20.9086C85.5371 20.9086 83.6942 19.0611 83.6942 16.7781C83.6942 14.4952 85.5417 12.6477 87.8246 12.6477C89.3695 12.6477 90.7127 13.5004 91.4279 14.7473L95.3749 12.556C93.8988 9.92468 91.0565 8.12306 87.8246 8.12306C83.0433 8.12306 79.165 12.0013 79.165 16.7827C79.165 21.5641 83.0433 25.4424 87.8246 25.4424C91.0795 25.4424 93.8988 23.6637 95.3749 21.0094L91.4279 18.809ZM52.503 0.939537H57.4448V25.1123H52.503V0.939537ZM97.3141 0.939537V25.1123H102.256V17.86L108.119 25.1123H114.445L106.987 16.4985L113.891 8.4623H107.84L102.251 15.1324V0.939537H97.3141Z" fill="black"/>
<path d="M72.1286 18.8556C71.4134 20.0337 69.9373 20.9093 68.2732 20.9093C65.9857 20.9093 64.1428 19.0618 64.1428 16.7789C64.1428 14.4959 65.9903 12.6485 68.2732 12.6485C69.9373 12.6485 71.4134 13.5699 72.1286 14.771V18.8556ZM72.1286 8.46763V10.4297C71.3218 9.06817 69.3139 8.11922 67.2097 8.11922C62.8684 8.11922 59.4531 11.9517 59.4531 16.756C59.4531 21.5603 62.8684 25.4385 67.2097 25.4385C69.3093 25.4385 71.3172 24.4942 72.1286 23.1281V25.0901H77.0704V8.46763H72.1286Z" fill="black"/>
<path fill-rule="evenodd" clip-rule="evenodd" d="M5.96034 18.8318C5.96034 20.5188 4.59882 21.8803 2.91181 21.8803C1.22481 21.8803 -0.136719 20.5142 -0.136719 18.8318C-0.136719 17.1494 1.22481 15.7833 2.91181 15.7833H5.96034V18.8318ZM7.48231 18.8318C7.48231 17.1448 8.84384 15.7833 10.5308 15.7833C12.2179 15.7833 13.5794 17.1448 13.5794 18.8318V26.4508C13.5794 28.1379 12.2179 29.4994 10.5308 29.4994C8.84384 29.4994 7.48231 28.1379 7.48231 26.4508V18.8318Z" fill="black"/>
<path fill-rule="evenodd" clip-rule="evenodd" d="M10.5303 6.59714C8.84332 6.59714 7.4818 5.23562 7.4818 3.54861C7.4818 1.86161 8.84332 0.500084 10.5303 0.500084C12.2173 0.500084 13.5789 1.86161 13.5789 3.54861V6.59714H10.5303ZM10.5303 8.14204C12.2173 8.14204 13.5789 9.50356 13.5789 11.1906C13.5789 12.8776 12.2173 14.2391 10.5303 14.2391H2.88837C1.20137 14.2391 -0.160156 12.873 -0.160156 11.1906C-0.160156 9.50815 1.20137 8.14204 2.88837 8.14204H10.5303Z" fill="black"/>
<path fill-rule="evenodd" clip-rule="evenodd" d="M22.7431 11.1906C22.7431 9.50356 24.1046 8.14204 25.7916 8.14204C27.4786 8.14204 28.8401 9.50356 28.8401 11.1906C28.8401 12.8776 27.4786 14.2391 25.7916 14.2391H22.7431V11.1906ZM21.2211 11.1906C21.2211 12.8776 19.8596 14.2391 18.1726 14.2391C16.4855 14.2391 15.124 12.8776 15.124 11.1906V3.54861C15.124 1.86161 16.4855 0.500084 18.1726 0.500084C19.8596 0.500084 21.2211 1.86161 21.2211 3.54861V11.1906Z" fill="black"/>
<path fill-rule="evenodd" clip-rule="evenodd" d="M18.1716 23.4023C19.8586 23.4023 21.2201 24.7638 21.2201 26.4508C21.2201 28.1379 19.8586 29.4994 18.1716 29.4994C16.4846 29.4994 15.123 28.1379 15.123 26.4508V23.4023H18.1716ZM18.1716 21.8803C16.4846 21.8803 15.123 20.5188 15.123 18.8318C15.123 17.1448 16.4846 15.7833 18.1716 15.7833H25.8135C27.5005 15.7833 28.8621 17.1448 28.8621 18.8318C28.8621 20.5188 27.5005 21.8803 25.8135 21.8803H18.1716Z" fill="black"/>
</g>
<defs>
<clipPath id="clip0_194_21071">
<rect width="114" height="30" fill="white"/>
</clipPath>
</defs>
</svg>
