<svg width="138" height="30" viewBox="0 0 138 30" fill="none" xmlns="http://www.w3.org/2000/svg">
<path d="M50.8864 20.8317C47.7351 20.8317 45.1808 18.2209 45.1808 14.9998C45.1808 11.7791 47.7351 9.16796 50.8868 9.16796C54.038 9.16796 56.592 11.7791 56.592 14.9998C56.592 18.2209 54.0377 20.8317 50.8864 20.8317ZM56.6103 21.5713C56.6103 22.1055 57.5255 23.6057 58.6469 23.6057H59.3731C59.6547 23.6057 59.8848 23.3752 59.8848 23.0939V7.13398H59.8822C59.8752 7.00355 59.8185 6.88076 59.7238 6.79075C59.6292 6.70075 59.5037 6.65034 59.3731 6.64986H57.1228C56.8505 6.64986 56.6282 6.8654 56.6129 7.13398H56.6103V8.43095C55.2319 6.73279 53.0578 6.0279 50.8778 6.0279C45.9227 6.0279 41.9062 10.0447 41.9062 15.0002C41.9062 19.9557 45.9227 23.9725 50.8778 23.9725C53.0578 23.9725 55.4336 23.1268 56.6103 21.5694V21.5721V21.5713ZM65.2617 19.2859C66.7637 20.3263 68.4036 20.8317 69.9793 20.8317C71.4809 20.8317 73.0323 20.0532 73.0323 18.6987C73.0323 16.8907 69.6505 16.6091 67.5262 15.887C65.4007 15.1649 63.5703 13.6719 63.5703 11.2542C63.5703 7.55535 66.8665 6.02753 69.943 6.02753C71.8922 6.02753 73.903 6.67004 75.2071 7.59121C75.6565 7.93114 75.3827 8.32225 75.3827 8.32225L74.138 10.0996C73.9983 10.2998 73.7084 10.4597 73.4025 10.2561C72.5639 9.70177 71.63 9.16759 69.9427 9.16759C67.8541 9.16759 66.9356 10.0346 66.9356 11.1089C66.9356 12.3977 68.4048 12.8026 70.1257 13.2419C73.1253 14.0499 76.3976 15.0222 76.3976 18.6991C76.3976 21.9583 73.3487 23.9725 69.9793 23.9725C67.4261 23.9725 65.252 23.2444 63.4287 21.9068C63.0492 21.5265 63.3144 21.1735 63.3144 21.1735L64.5527 19.4051C64.8049 19.0741 65.1224 19.1899 65.2617 19.2859ZM93.2742 21.5717C93.2742 22.1055 94.189 23.6057 95.3101 23.6057H96.0366C96.3183 23.6057 96.5487 23.3752 96.5487 23.0939V7.13398H96.5458C96.5385 7.00362 96.4818 6.88093 96.3872 6.79095C96.2926 6.70098 96.1672 6.65052 96.0366 6.64986H93.7863C93.5137 6.64986 93.2918 6.8654 93.2768 7.13398H93.2742V8.43095C91.8954 6.73279 89.7214 6.0279 87.5417 6.0279C82.5866 6.0279 78.5694 10.0447 78.5694 14.9998C78.5694 19.955 82.5866 23.9721 87.5417 23.9721C89.7214 23.9721 92.0971 23.1264 93.2738 21.5691V21.5717H93.2742ZM87.5503 20.8321C84.3987 20.8321 81.8443 18.2209 81.8443 14.9998C81.8443 11.7791 84.3987 9.16796 87.5503 9.16796C90.7012 9.16796 93.2559 11.7791 93.2559 14.9998C93.2559 18.2209 90.7012 20.8317 87.5503 20.8317V20.8321ZM116.711 22.1201L116.71 13.862C116.71 9.20682 113.773 6.06601 109.09 6.06601C106.854 6.06601 105.025 7.35886 104.378 8.46943V8.45374L104.374 8.46644C104.373 7.3428 103.461 6.68834 102.338 6.68834H101.615C101.333 6.68834 101.103 6.91919 101.103 7.20085V23.1611H101.106C101.121 23.4301 101.343 23.6456 101.615 23.6456H103.865C103.9 23.6456 103.934 23.6415 103.966 23.6355C103.981 23.6322 103.995 23.6262 104.01 23.6221C104.027 23.6172 104.044 23.6131 104.06 23.6064C104.08 23.5982 104.098 23.587 104.117 23.5765C104.126 23.5709 104.136 23.5672 104.145 23.5616C104.167 23.5464 104.188 23.5297 104.207 23.5115C104.211 23.5082 104.215 23.5059 104.218 23.5029C104.312 23.4133 104.368 23.291 104.375 23.1611H104.378V13.7339C104.378 11.2337 106.405 9.20644 108.905 9.20644C111.406 9.20644 113.433 11.2337 113.433 13.7339L113.434 21.6143L113.435 21.6113C113.435 21.6184 113.437 21.6259 113.437 21.6329V23.1611H113.44C113.454 23.4301 113.676 23.6456 113.949 23.6456H116.199C116.234 23.6456 116.267 23.6415 116.3 23.6355C116.313 23.6326 116.326 23.627 116.338 23.624C116.357 23.6184 116.376 23.6135 116.394 23.6064C116.412 23.5989 116.429 23.5881 116.446 23.5784C116.457 23.5728 116.468 23.5683 116.478 23.5616C116.499 23.5474 116.518 23.5313 116.537 23.5149C116.542 23.5112 116.547 23.5074 116.552 23.5026C116.573 23.4824 116.591 23.46 116.609 23.4368C116.668 23.3571 116.702 23.2618 116.708 23.1626L116.708 23.1611H116.711L116.711 22.1201ZM134.26 21.5717C134.26 22.1055 135.175 23.6057 136.296 23.6057H137.023C137.304 23.6057 137.535 23.3752 137.535 23.0939V7.13398H137.532C137.525 7.00358 137.468 6.88089 137.374 6.79093C137.279 6.70097 137.153 6.65052 137.023 6.64986H134.773C134.642 6.65025 134.517 6.70061 134.422 6.79062C134.327 6.88064 134.271 7.00349 134.263 7.13398H134.26V8.43095C132.881 6.73279 130.708 6.0279 128.527 6.0279C123.573 6.0279 119.556 10.0447 119.556 14.9998C119.556 19.955 123.573 23.9721 128.527 23.9721C130.708 23.9721 133.083 23.1264 134.259 21.5691L134.26 21.5717ZM128.537 20.8321C125.385 20.8321 122.831 18.2209 122.831 14.9998C122.831 11.7791 125.385 9.16796 128.537 9.16796C131.687 9.16796 134.241 11.7791 134.241 14.9998C134.241 18.2209 131.687 20.8317 128.537 20.8317V20.8321Z" fill="black"/>
<path d="M25.3035 15.8528C21.5345 15.8528 18.4797 18.9076 18.4797 22.6759C18.4797 26.4446 21.5345 29.5 25.3035 29.5C29.0718 29.5 32.1266 26.4446 32.1266 22.6759C32.1266 18.9076 29.0718 15.8528 25.3035 15.8528ZM7.5754 15.8531C3.80707 15.8534 0.751953 18.9076 0.751953 22.6762C0.751953 26.4446 3.80707 29.4997 7.5754 29.4997C11.3441 29.4997 14.3992 26.4446 14.3992 22.6762C14.3992 18.9076 11.3444 15.8531 7.5754 15.8531ZM23.2627 7.32345C23.2627 11.0918 20.2079 14.1476 16.4396 14.1476C12.6706 14.1476 9.61583 11.0918 9.61583 7.32345C9.61583 3.55512 12.6706 0.5 16.4396 0.5C20.2079 0.5 23.2624 3.55512 23.2624 7.32345H23.2627Z" fill="black"/>
</svg>
